/* XPM */
static char *a3b30ac8b6494a70f0cc543bef1ec1d3VHBPAWmAccTIdIwG[] = {
/* columns rows colors chars-per-pixel */
"16 16 76 1 ",
"  c None",
". c #747474",
"X c #807F6C",
"o c #B79462",
"O c #2D5C92",
"+ c #3F71A1",
"@ c #4879A5",
"# c #4979A6",
"$ c #497AA6",
"% c #868686",
"& c #8E8E8E",
"* c gray56",
"= c #929292",
"- c #959991",
"; c #BCAF99",
": c #B7AEA0",
"> c #AFB6B6",
", c #BFBFB6",
"< c #C5BBA3",
"1 c #C1BAAB",
"2 c #C6BBAA",
"3 c #DACCB4",
"4 c #ECD0AA",
"5 c #E6D3B3",
"6 c #A5C0D8",
"7 c #A7C3DB",
"8 c #AFC7DD",
"9 c #B0C5D7",
"0 c #BACDDD",
"q c #B9CCDE",
"w c #A8C4E0",
"e c #B7CDE3",
"r c #B5CEE4",
"t c #BED4E8",
"y c #BED7F0",
"u c #D6CEC6",
"i c #D9D1C9",
"p c #DBD4CC",
"a c #D2D2D2",
"s c #DAD6D3",
"d c #D4D6D9",
"f c gray85",
"g c #DFDFDF",
"h c #E0D5C5",
"j c #ECDECE",
"k c #E4DAD2",
"l c #E3DED7",
"z c #E9E0CF",
"x c #F5E2C6",
"c c #E6E0D6",
"v c #CCDAE6",
"b c #CDDBE7",
"n c #CEDCE8",
"m c #D9DCE2",
"M c #D3DDE8",
"N c #CEE6F7",
"B c #E1E0E1",
"V c #E1E1E1",
"C c #E2E2E2",
"Z c #F1EEEC",
"A c #F4F0EB",
"S c #F5F2EB",
"D c #E2EAF2",
"F c #E6ECF1",
"G c #E9EFF4",
"H c gray94",
"J c #F6F6F6",
"K c #F2F8FC",
"L c #FBFBFB",
"P c #FFFFFA",
"I c gray99",
"U c #FEFDFC",
"Y c #FFFFFD",
"T c #FCFDFF",
"R c #FDFEFF",
"E c white",
/* pixels */
"      EEEE      ",
"    EEEEEEEE    ",
"  EEEEEEEEEEEE  ",
"  nvnvMEEcBBgC  ",
" G@+@@Otk.&&%=J ",
" EELLEr7imEELEE ",
"EEEEEE>tg2PEEEEE",
"EEEEAh,<:15AEEEE",
"EEEEz4N.oK3lEEEE",
"EEEEPx-wj;lEEEEE",
" EEEEE0rsdEEEEE ",
" EEEEE08pfEEEEE ",
"  EEEE96uaEEEE  ",
"  EEEEFDZHEEEE  ",
"    EEEEEEEE    ",
"      EEEE      "
};
