/* XPM */
static char *result[] = {
/* columns rows colors chars-per-pixel */
"32 32 139 2 ",
"   c #002B76",
".  c #003077",
"X  c #00347B",
"o  c #003A7F",
"O  c #27506E",
"+  c #505050",
"@  c #5B5B5B",
"#  c gray37",
"$  c #6E6658",
"%  c gray42",
"&  c #797979",
"*  c #7D7C7B",
"=  c #7B7B7D",
"-  c gray49",
";  c #7E7E7E",
":  c #A07635",
">  c #8B7A56",
",  c #957D57",
"<  c #7C8276",
"1  c #CD8E2E",
"2  c #B38C4D",
"3  c #B18F58",
"4  c #B69052",
"5  c #B99458",
"6  c #82817F",
"7  c #A8936D",
"8  c #AE976F",
"9  c #B69B6C",
"0  c #A79575",
"q  c #A7967A",
"w  c #AE9C7B",
"e  c #B19971",
"r  c #B39A71",
"t  c #BCA47A",
"y  c #C4A470",
"u  c #DCB77E",
"i  c #003B80",
"p  c #1E578A",
"a  c #295E96",
"s  c #2F6390",
"d  c #346591",
"f  c #3B6B96",
"g  c #386A98",
"h  c #396B98",
"j  c #3C6D99",
"k  c #3E6F9A",
"l  c #356FA7",
"z  c #6F7580",
"x  c #4E7CA6",
"c  c #4F7DA7",
"v  c #4579A9",
"b  c #5880A5",
"n  c #5682AB",
"m  c #5D87AE",
"M  c #7596B3",
"N  c #808080",
"B  c #838383",
"V  c #81858A",
"C  c #83878C",
"Z  c #8E8E8E",
"A  c #83959F",
"S  c #959595",
"D  c #979797",
"F  c gray60",
"G  c #A59A82",
"H  c #93A8B7",
"J  c gray63",
"K  c #C0AC88",
"L  c #D7BB8E",
"P  c #C3B195",
"I  c #D0BA94",
"U  c #D5BA94",
"Y  c #CABBA0",
"T  c #C1B8A9",
"R  c #DFC7A5",
"E  c #CBC1B0",
"W  c #CCC7BD",
"Q  c #D2CABA",
"!  c #E0CAA6",
"~  c #ECD0A6",
"^  c #E2CEB0",
"/  c #E6D5B8",
"(  c #97B5D0",
")  c #A5BFD6",
"_  c #A7C1D8",
"`  c #BBCFDF",
"'  c #A8C6E3",
"]  c #AFCCE8",
"[  c #B3D2EF",
"{  c #A3C9F2",
"}  c #D0CDC7",
"|  c gray84",
" . c #DDDAD5",
".. c gray86",
"X. c #DDDDDD",
"o. c #EADBC1",
"O. c #E7DDCE",
"+. c #E6DED2",
"@. c #EDE1CA",
"#. c #ECE0CD",
"$. c #E9E1D3",
"%. c #EFE8DE",
"&. c #C0D1E1",
"*. c #CCD9E3",
"=. c #CAD8E5",
"-. c #DDE3ED",
";. c #DFE7EE",
":. c gray90",
">. c #E4E5E6",
",. c #E2E5EB",
"<. c #E3E6EB",
"1. c #E5E9EE",
"2. c #E6EBEF",
"3. c #E9E9E9",
"4. c #ECECEC",
"5. c gray93",
"6. c #EEEEEE",
"7. c #EFEFEF",
"8. c #F7F0E3",
"9. c #FAF6EF",
"0. c #E5E9F1",
"q. c #E6EAF0",
"w. c #E7EBF0",
"e. c #E7ECF0",
"r. c #EEEEF0",
"t. c #EEF1F4",
"y. c gray94",
"u. c #F3F3F3",
"i. c #F4F5F5",
"p. c #FAF9F7",
"a. c #FBFAF7",
"s. c #FBFCFD",
"d. c #FDFDFC",
"f. c #FEFDFD",
"g. c #FDFFFF",
"h. c #FEFEFE",
"j. c #FFFEFE",
"k. c white",
"l. c None",
/* pixels */
"l.l.l.l.l.l.l.l.l.l.l.l.l.k.k.k.k.k.k.l.l.l.l.l.l.l.l.l.l.l.l.l.",
"l.l.l.l.l.l.l.l.l.l.k.k.k.k.k.k.k.k.k.k.k.k.l.l.l.l.l.l.l.l.l.l.",
"l.l.l.l.l.l.l.l.k.k.k.k.k.k.k.k.k.k.k.k.k.k.k.k.l.l.l.l.l.l.l.l.",
"l.l.l.l.l.l.k.k.k.k.k.k.k.k.k.k.k.k.k.k.k.k.k.k.k.k.l.l.l.l.l.l.",
"l.l.l.l.l.k.k.k.k.k.k.k.k.k.k.k.k.k.k.k.k.k.k.k.k.k.k.l.l.l.l.l.",
"l.l.l.l.k.k.k.k.k.k.k.k.k.k.k.k.k.k.k.k.k.k.k.k.k.k.k.k.l.l.l.l.",
"l.l.l.k.k.k.k.k.k.k.k.k.k.k.k.k.k.k.k.k.k.k.k.k.k.k.k.k.k.l.l.l.",
"l.l.l.s.w.2.e.e.e.e.e.e.e.1.t.k.k.y.4.6.6.6.6.6.6.6.4.7.h.l.l.l.",
"l.l.k.=.. X i i i i i i o   b k.k.B + @ @ @ @ @ @ @ + # 5.k.l.l.",
"l.l.k.;.x c n n n n n n m a k k.j.& N F S S S S S S Z D u.k.l.l.",
"l.k.k.k.k.k.k.k.k.k.k.k.k.` h k.d.- 3.k.k.k.k.k.k.k.k.k.k.k.k.l.",
"l.k.k.k.k.k.k.k.k.k.k.k.k._ j k.d.; X.k.k.k.k.k.k.k.k.k.k.k.k.l.",
"l.k.k.k.k.k.k.k.k.k.k.k.k.' g k.d.* ,.k.k.k.k.k.k.k.k.k.k.k.k.l.",
"k.k.k.k.k.k.k.k.k.k.k.a.#.H l k.k.C E / p.k.k.k.k.k.k.k.k.k.k.k.",
"k.k.k.k.k.k.k.k.k.k.$.w P t G k.k.6 q y 5 O.k.k.k.k.k.k.k.k.k.k.",
"k.k.k.k.k.k.k.k.k.9.8 W g.*.> ~ I $ -.k.! 3 i.k.k.k.k.k.k.k.k.k.",
"k.k.k.k.k.k.k.k.k.o.e k.k.{ s 1 : z q.k.k.9  .k.k.k.k.k.k.k.k.k.",
"k.k.k.k.k.k.k.k.k.8.2 +.k.[ O U L , 0.k.@.7 r.k.k.k.k.k.k.k.k.k.",
"k.k.k.k.k.k.k.k.k.k.^ 4 u < d k.k.r K Y 0 } k.k.k.k.k.k.k.k.k.k.",
"l.k.k.k.k.k.k.k.k.k.k.%.R A v k.g.V T Q >.k.k.k.k.k.k.k.k.k.k.l.",
"l.k.k.k.k.k.k.k.k.k.k.k.k.] f k.d.= <.k.k.k.k.k.k.k.k.k.k.k.k.l.",
"l.k.k.k.k.k.k.k.k.k.k.k.k.) j k.d.; ..k.k.k.k.k.k.k.k.k.k.k.k.l.",
"l.l.k.k.k.k.k.k.k.k.k.k.k.) j k.d.; ..k.k.k.k.k.k.k.k.k.k.k.l.l.",
"l.l.k.k.k.k.k.k.k.k.k.k.k.) j k.d.; ..k.k.k.k.k.k.k.k.k.k.k.l.l.",
"l.l.l.k.k.k.k.k.k.k.k.k.k.) j k.d.; ..k.k.k.k.k.k.k.k.k.k.l.l.l.",
"l.l.l.k.k.k.k.k.k.k.k.k.k.( p k.d.% | k.k.k.k.k.k.k.k.k.k.l.l.l.",
"l.l.l.l.k.k.k.k.k.k.k.k.k.&.M k.f.J :.k.k.k.k.k.k.k.k.k.l.l.l.l.",
"l.l.l.l.l.k.k.k.k.k.k.k.k.k.k.k.k.k.k.k.k.k.k.k.k.k.k.l.l.l.l.l.",
"l.l.l.l.l.l.k.k.k.k.k.k.k.k.k.k.k.k.k.k.k.k.k.k.k.k.l.l.l.l.l.l.",
"l.l.l.l.l.l.l.l.k.k.k.k.k.k.k.k.k.k.k.k.k.k.k.k.l.l.l.l.l.l.l.l.",
"l.l.l.l.l.l.l.l.l.l.k.k.k.k.k.k.k.k.k.k.k.k.l.l.l.l.l.l.l.l.l.l.",
"l.l.l.l.l.l.l.l.l.l.l.l.l.k.k.k.k.k.k.l.l.l.l.l.l.l.l.l.l.l.l.l."
};
