/* XPM */
static char *b60a4a56596b48609f075b70a2a3deddkJtVKZUnfZJla2Gw[] = {
/* columns rows colors chars-per-pixel */
"64 64 170 2 ",
"   c None",
".  c #343434",
"X  c #00005B",
"o  c #001F6F",
"O  c #001979",
"+  c #00206E",
"@  c #002271",
"#  c #002678",
"$  c #002E7C",
"%  c #00337D",
"&  c #033D7F",
"*  c #0B437F",
"=  c #3D5A73",
"-  c #4F4F4F",
";  c #535456",
":  c #5D5D5E",
">  c #7F6F54",
",  c #71705D",
"<  c #4C5460",
"1  c #585E68",
"2  c #5A616B",
"3  c gray39",
"4  c #6A6A6A",
"5  c #616670",
"6  c #6F7774",
"7  c gray44",
"8  c #AB741E",
"9  c #A87829",
"0  c #AF7E30",
"q  c #A37832",
"w  c #9F7F48",
"e  c #806F53",
"r  c #A07C42",
"t  c #887962",
"y  c #AE8139",
"u  c #BB893C",
"i  c #B88637",
"p  c #D59639",
"a  c #9F875D",
"s  c #B38A45",
"d  c #BE9044",
"f  c #A48B5B",
"g  c #AA8B57",
"h  c #B88F58",
"j  c #BB965A",
"k  c #BA9557",
"l  c #978362",
"z  c #8A8477",
"x  c #9C917E",
"c  c #A68E65",
"v  c #A28E6A",
"b  c #AD9264",
"n  c #AB936E",
"m  c #BD9C65",
"M  c #B79966",
"N  c #A1927A",
"B  c #B59D76",
"V  c #BBA37B",
"C  c #B5A07C",
"Z  c #C69749",
"A  c #C69950",
"S  c #D8A14D",
"D  c #D9A95C",
"F  c #C09D62",
"G  c #C5A36C",
"H  c #C8A263",
"J  c #C5A876",
"K  c #D8AF73",
"L  c #CFB07B",
"P  c #D6B373",
"I  c #ECBA73",
"U  c #002283",
"Y  c #003086",
"T  c #003F81",
"R  c #00338C",
"E  c #00388C",
"W  c #024182",
"Q  c #034B8D",
"!  c #16558E",
"~  c #18568E",
"^  c #5C7284",
"/  c #6B7C9F",
"(  c #7A8183",
")  c #6A87A2",
"_  c #718AA0",
"`  c #7E96AD",
"'  c #7590A7",
"]  c #6D90B3",
"[  c #7E9AB4",
"{  c #7695B1",
"}  c #818181",
"|  c #8B9084",
" . c #9E9380",
".. c #8A8D94",
"X. c #939393",
"o. c #96999C",
"O. c #A39986",
"+. c #A79C8A",
"@. c #BAA889",
"#. c #A6A199",
"$. c #BEAE93",
"%. c #B6AB98",
"&. c #858FA0",
"*. c #8097AA",
"=. c #879DB2",
"-. c #A7A7A7",
";. c #B6AFA2",
":. c #BEB7AC",
">. c #BEBDBC",
",. c #C2AD8A",
"<. c #D4B989",
"1. c #C5B59C",
"2. c #CEBC9D",
"3. c #CDB795",
"4. c #D3BB97",
"5. c #C5BCAB",
"6. c #D3C09F",
"7. c #F1C685",
"8. c #D3C1A4",
"9. c #D7C8AF",
"0. c #CFC8BC",
"q. c #D2C6B1",
"w. c #E4D5BC",
"e. c #F7E2BB",
"r. c #96B1C8",
"t. c #89B4DE",
"y. c #A6B6C7",
"u. c #A9BAC9",
"i. c #ADBBC6",
"p. c #A3BCD1",
"a. c #B7C2CD",
"s. c #A7C1D7",
"d. c #AFC3D6",
"f. c #A8C4DD",
"g. c #B9CBDB",
"h. c #B9C5D0",
"j. c #C1C1C1",
"k. c #CCCAC5",
"l. c #CBCBCA",
"z. c #C5C7CB",
"x. c #D2CCC2",
"c. c #DED5C7",
"v. c #C7CDD7",
"b. c #CFD1D4",
"n. c #D2D2D2",
"m. c #D3D6DC",
"M. c #D8D8D8",
"N. c #EADFCC",
"B. c #E6DAC4",
"V. c #E1DBD0",
"C. c #EDE1CB",
"Z. c #ECE5D7",
"A. c #EBE5DC",
"S. c #F9ECDA",
"D. c #D3DBE3",
"F. c #DADEE5",
"G. c #D8E2F2",
"H. c #E3E3E3",
"J. c #E2E4E9",
"K. c #E7EAEC",
"L. c #EAEBEC",
"P. c #F2EDE2",
"I. c #F5F1EC",
"U. c #F5F0E4",
"Y. c #EAEEF3",
"T. c #EEF4FC",
"R. c #F5F5F4",
"E. c #F6F7F8",
"W. c #FFFFFF",
"Q. c #F8F8F6",
/* pixels */
"                                                            W.W.W.W.                                                            ",
"                                                W.W.W.W.W.W.W.W.W.W.W.W.W.W.W.W.                                                ",
"                                          W.W.W.W.W.W.W.W.W.W.W.W.W.W.W.W.W.W.W.W.W.W.                                          ",
"                                      W.W.W.W.W.W.W.W.W.W.W.W.W.W.W.W.W.W.W.W.W.W.W.W.W.W.                                      ",
"                                  W.W.W.W.W.W.W.W.W.W.W.W.W.W.W.W.W.W.W.W.W.W.W.W.W.W.W.W.W.W.                                  ",
"                              W.W.W.W.W.W.W.W.W.W.W.W.W.W.W.W.W.W.W.W.W.W.W.W.W.W.W.W.W.W.W.W.W.W.                              ",
"                            W.W.W.W.W.W.W.W.W.W.W.W.W.W.W.W.W.W.W.W.W.W.W.W.W.W.W.W.W.W.W.W.W.W.W.W.W.                          ",
"                        W.W.W.W.W.W.W.W.W.W.W.W.W.W.W.W.W.W.W.W.W.W.W.W.W.W.W.W.W.W.W.W.W.W.W.W.W.W.W.W.                        ",
"                      W.W.W.W.W.W.W.W.W.W.W.W.W.W.W.W.W.W.W.W.W.W.W.W.W.W.W.W.W.W.W.W.W.W.W.W.W.W.W.W.W.W.                      ",
"                    W.W.W.W.W.W.W.W.W.W.W.W.W.W.W.W.W.W.W.W.W.W.W.W.W.W.W.W.W.W.W.W.W.W.W.W.W.W.W.W.W.W.W.W.                    ",
"                  W.W.W.W.W.W.W.W.W.W.W.W.W.W.W.W.W.W.W.W.W.W.W.W.W.W.W.W.W.W.W.W.W.W.W.W.W.W.W.W.W.W.W.W.W.W.                  ",
"                W.W.W.W.W.W.W.W.W.W.W.W.W.W.W.W.W.W.W.W.W.W.W.W.W.W.W.W.W.W.W.W.W.W.W.W.W.W.W.W.W.W.W.W.W.W.W.W.                ",
"              W.W.W.W.W.W.W.W.W.W.W.W.W.W.W.W.W.W.W.W.W.W.W.W.W.W.W.W.W.W.W.W.W.W.W.W.W.W.W.W.W.W.W.W.W.W.W.W.W.W.              ",
"              W.W.W.W.W.W.W.W.W.W.W.W.W.W.W.W.W.W.W.W.W.W.W.W.W.W.W.W.W.W.W.W.W.W.W.W.W.W.W.W.W.W.W.W.W.W.W.W.W.W.W.            ",
"            W.W.W.W.W.W.W.W.W.W.W.W.W.W.W.W.W.W.W.W.W.W.W.W.W.W.W.W.W.W.W.W.W.W.W.W.W.W.W.W.W.W.W.W.W.W.W.W.W.W.W.W.            ",
"          W.W.E.L.K.K.K.K.K.K.K.K.K.K.K.K.K.K.K.K.K.K.K.K.E.W.W.W.W.R.L.L.L.L.L.L.L.L.L.L.L.L.L.L.L.L.L.L.L.L.L.W.W.W.          ",
"          W.W.g.W ! ~ ~ ~ ~ ~ ~ ~ ~ ~ ~ ~ ~ ~ ~ ! ! ~ ~ * =.W.W.W.W.X.: 7 7 7 4 7 7 7 7 7 7 7 7 7 7 7 7 7 7 4 4 H.W.W.          ",
"        W.W.W.d.% Q Q Q Q Q Q Q Q Q Q Q Q Q Q Q Q Q Q Q % ' W.W.W.W.X.; 4 4 4 4 4 4 4 4 4 4 4 4 4 4 4 4 4 4 3 : M.W.W.W.        ",
"        W.W.W.d.@ & T T W T T & W W T T T T W T W * & Q W ` W.W.W.W.o.: 3 3 : 3 : : : : : : : : : : : : 3 : ; - M.W.W.W.W.      ",
"      W.W.W.W.Y.y.y.u.u.u.u.u.u.u.u.u.u.u.u.u.u.u.u.h.] $ ` W.W.W.W.X.; -.l.j.j.j.j.j.j.j.j.j.j.i.0.j.j.j.j.i.0.R.W.W.W.W.      ",
"      W.W.W.W.W.W.W.W.W.W.W.W.W.W.W.W.W.W.W.W.W.W.W.W.g.o ` W.W.W.W.X.- M.W.W.W.W.W.W.W.W.W.W.W.W.W.W.W.W.W.W.W.W.W.W.W.W.      ",
"    W.W.W.W.W.W.W.W.W.W.W.W.W.W.W.W.W.W.W.W.W.W.W.W.W.p.@ ` W.W.W.W.X.- n.W.W.W.W.W.W.W.W.W.W.W.W.W.W.W.W.W.W.W.W.W.W.W.W.W.    ",
"    W.W.W.W.W.W.W.W.W.W.W.W.W.W.W.W.W.W.W.W.W.W.W.W.W.p.@ ` W.W.W.W.X.- n.W.W.W.W.W.W.W.W.W.W.W.W.W.W.W.W.W.W.W.W.W.W.W.W.W.    ",
"    W.W.W.W.W.W.W.W.W.W.W.W.W.W.W.W.W.W.W.W.W.W.W.W.W.p.@ ` W.W.W.W.X.- n.W.W.W.W.W.W.W.W.W.W.W.W.W.W.W.W.W.W.W.W.W.W.W.W.W.    ",
"  W.W.W.W.W.W.W.W.W.W.W.W.W.W.W.W.W.W.W.W.W.W.W.W.W.W.p.@ ` W.W.W.W.X.- l.W.W.W.W.W.W.W.W.W.W.W.W.W.W.W.W.W.W.W.W.W.W.W.W.W.W.  ",
"  W.W.W.W.W.W.W.W.W.W.W.W.W.W.W.W.W.W.W.W.W.W.W.W.W.W.p.@ ` W.W.W.W.X.- n.W.W.W.W.W.W.W.W.W.W.W.W.W.W.W.W.W.W.W.W.W.W.W.W.W.W.  ",
"  W.W.W.W.W.W.W.W.W.W.W.W.W.W.W.W.W.W.W.W.W.W.W.W.W.W.s.o ` W.W.W.W.X.- M.W.W.W.W.W.W.W.W.W.W.W.W.W.W.W.W.W.W.W.W.W.W.W.W.W.W.  ",
"  W.W.W.W.W.W.W.W.W.W.W.W.W.W.W.W.W.W.W.W.W.W.L.V.c.S.r.O ` W.W.W.W.X.; k.C.9.w.P.W.W.W.W.W.W.W.W.W.W.W.W.W.W.W.W.W.W.W.W.W.W.  ",
"  W.W.W.W.W.W.W.W.W.W.W.W.W.W.W.W.W.W.W.W.R.q.V c f j J = ] W.W.W.W.o.2 @.i q 9 s 2.E.W.W.W.W.W.W.W.W.W.W.W.W.W.W.W.W.W.W.W.W.  ",
"  W.W.W.W.W.W.W.W.W.W.W.W.W.W.W.W.W.W.W.I.,.g N :.x.5.K D O.W.W.W.W.z 5 O.,.0.q.A 8 n R.W.W.W.W.W.W.W.W.W.W.W.W.W.W.W.W.W.W.W.  ",
"W.W.W.W.W.W.W.W.W.W.W.W.W.W.W.W.W.W.W.W.2.g N F.W.W.W.i.f S 1.W.W.P > 2 z.W.W.W.I.G 8 @.W.W.W.W.W.W.W.W.W.W.W.W.W.W.W.W.W.W.W.W.",
"W.W.W.W.W.W.W.W.W.W.W.W.W.W.W.W.W.W.W.P.m a m.W.W.W.W.t.W j i 2.<.i > 1 M.W.W.W.W.P.s g J.W.W.W.W.W.W.W.W.W.W.W.W.W.W.W.W.W.W.W.",
"W.W.W.W.W.W.W.W.W.W.W.W.W.W.W.W.W.W.W.B.s O.E.W.W.W.W.p.U _ I u u B ( 1 n.W.W.W.W.W.L r k.W.W.W.W.W.W.W.W.W.W.W.W.W.W.W.W.W.W.W.",
"W.W.W.W.W.W.W.W.W.W.W.W.W.W.W.W.W.W.W.w.y #.W.W.W.W.W.p.# [ 7.u u 1.&.; n.W.W.W.W.W.<.w k.W.W.W.W.W.W.W.W.W.W.W.W.W.W.W.W.W.W.W.",
"  W.W.W.W.W.W.W.W.W.W.W.W.W.W.W.W.W.W.C.u b T.W.W.W.W.p.R ( p n G Z t ; n.W.W.W.W.Q.G a b.W.W.W.W.W.W.W.W.W.W.W.W.W.W.W.W.W.W.  ",
"  W.W.W.W.W.W.W.W.W.W.W.W.W.W.W.W.W.W.W.H 9 1.W.W.W.W.s.Y 6 h G.R.m A e v.W.W.W.W.8.j x T.W.W.W.W.W.W.W.W.W.W.W.W.W.W.W.W.W.W.  ",
"  W.W.W.W.W.W.W.W.W.W.W.W.W.W.W.W.W.W.W.N.i 0 3.Z.S.e.| E ^ H.W.W.I.J G ,.Z.I.Z.8.M l l.W.W.W.W.W.W.W.W.W.W.W.W.W.W.W.W.W.W.W.  ",
"  W.W.W.W.W.W.W.W.W.W.W.W.W.W.W.W.W.W.W.W.N.k 9 s k p , E [ W.W.W.W.#.v m b V B c x a.W.W.W.W.W.W.W.W.W.W.W.W.W.W.W.W.W.W.W.W.  ",
"  W.W.W.W.W.W.W.W.W.W.W.W.W.W.W.W.W.W.W.W.W.Q.q.,.C 4.*.$ *.W.W.W.W...- :.q.%.;.>.H.W.W.W.W.W.W.W.W.W.W.W.W.W.W.W.W.W.W.W.W.W.  ",
"  W.W.W.W.W.W.W.W.W.W.W.W.W.W.W.W.W.W.W.W.W.W.W.W.E.W.f.o ` W.W.W.W.X.- D.W.E.W.W.W.W.W.W.W.W.W.W.W.W.W.W.W.W.W.W.W.W.W.W.W.W.  ",
"    W.W.W.W.W.W.W.W.W.W.W.W.W.W.W.W.W.W.W.W.W.W.W.W.W.p.@ ` W.W.W.W.X.- n.W.W.W.W.W.W.W.W.W.W.W.W.W.W.W.W.W.W.W.W.W.W.W.W.W.    ",
"    W.W.W.W.W.W.W.W.W.W.W.W.W.W.W.W.W.W.W.W.W.W.W.W.W.p.@ ` W.W.W.W.X.- n.W.W.W.W.W.W.W.W.W.W.W.W.W.W.W.W.W.W.W.W.W.W.W.W.W.    ",
"    W.W.W.W.W.W.W.W.W.W.W.W.W.W.W.W.W.W.W.W.W.W.W.W.W.p.o ` W.W.W.W.X.- l.W.W.W.W.W.W.W.W.W.W.W.W.W.W.W.W.W.W.W.W.W.W.W.W.W.    ",
"      W.W.W.W.W.W.W.W.W.W.W.W.W.W.W.W.W.W.W.W.W.W.W.W.p.@ ` W.W.W.W.o.- n.W.W.W.W.W.W.W.W.W.W.W.W.W.W.W.W.W.W.W.W.W.W.W.W.      ",
"      W.W.W.W.W.W.W.W.W.W.W.W.W.W.W.W.W.W.W.W.W.W.W.W.p.@ ` W.W.W.W.X.- n.W.W.W.W.W.W.W.W.W.W.W.W.W.W.W.W.W.W.W.W.W.W.W.W.      ",
"        W.W.W.W.W.W.W.W.W.W.W.W.W.W.W.W.W.W.W.W.W.W.W.p.@ ` W.W.W.W.X.- n.W.W.W.W.W.W.W.W.W.W.W.W.W.W.W.W.W.W.W.W.W.W.W.W.      ",
"        W.W.W.W.W.W.W.W.W.W.W.W.W.W.W.W.W.W.W.W.W.W.W.p.@ ` W.W.W.W.X.- n.W.W.W.W.W.W.W.W.W.W.W.W.W.W.W.W.W.W.W.W.W.W.W.        ",
"          W.W.W.W.W.W.W.W.W.W.W.W.W.W.W.W.W.W.W.W.W.W.p.@ ` W.W.W.W.X.- n.W.W.W.W.W.W.W.W.W.W.W.W.W.W.W.W.W.W.W.W.W.W.W.        ",
"          W.W.W.W.W.W.W.W.W.W.W.W.W.W.W.W.W.W.W.W.W.W.p.@ ` W.W.W.W.X.- n.W.W.W.W.W.W.W.W.W.W.W.W.W.W.W.W.W.W.W.W.W.W.          ",
"            W.W.W.W.W.W.W.W.W.W.W.W.W.W.W.W.W.W.W.W.W.p.@ ` W.W.W.W.X.- n.W.W.W.W.W.W.W.W.W.W.W.W.W.W.W.W.W.W.W.W.W.            ",
"            W.W.W.W.W.W.W.W.W.W.W.W.W.W.W.W.W.W.W.W.W.p.@ ` W.W.W.W.X.- n.W.W.W.W.W.W.W.W.W.W.W.W.W.W.W.W.W.W.W.W.W.            ",
"              W.W.W.W.W.W.W.W.W.W.W.W.W.W.W.W.W.W.W.W.p.@ ` W.W.W.W.o.- l.W.W.W.W.W.W.W.W.W.W.W.W.W.W.W.W.W.W.W.W.              ",
"                W.W.W.W.W.W.W.W.W.W.W.W.W.W.W.W.W.W.W.r.X ) W.W.W.W.z . l.W.W.W.W.W.W.W.W.W.W.W.W.W.W.W.W.W.W.W.                ",
"                  W.W.W.W.W.W.W.W.W.W.W.W.W.W.W.W.W.W.D./ a.W.W.W.W.>...K.W.W.W.W.W.W.W.W.W.W.W.W.W.W.W.W.W.W.                  ",
"                    W.W.W.W.W.W.W.W.W.W.W.W.W.W.W.W.W.W.W.W.W.W.W.W.W.W.W.W.W.W.W.W.W.W.W.W.W.W.W.W.W.W.W.W.                    ",
"                      W.W.W.W.W.W.W.W.W.W.W.W.W.W.W.W.W.W.W.W.W.W.W.W.W.W.W.W.W.W.W.W.W.W.W.W.W.W.W.W.W.W.                      ",
"                        W.W.W.W.W.W.W.W.W.W.W.W.W.W.W.W.W.W.W.W.W.W.W.W.W.W.W.W.W.W.W.W.W.W.W.W.W.W.W.W.                        ",
"                          W.W.W.W.W.W.W.W.W.W.W.W.W.W.W.W.W.W.W.W.W.W.W.W.W.W.W.W.W.W.W.W.W.W.W.W.W.W.                          ",
"                              W.W.W.W.W.W.W.W.W.W.W.W.W.W.W.W.W.W.W.W.W.W.W.W.W.W.W.W.W.W.W.W.W.W.                              ",
"                                  W.W.W.W.W.W.W.W.W.W.W.W.W.W.W.W.W.W.W.W.W.W.W.W.W.W.W.W.W.W.W.                                ",
"                                    W.W.W.W.W.W.W.W.W.W.W.W.W.W.W.W.W.W.W.W.W.W.W.W.W.W.W.W.                                    ",
"                                          W.W.W.W.W.W.W.W.W.W.W.W.W.W.W.W.W.W.W.W.W.W.                                          ",
"                                                W.W.W.W.W.W.W.W.W.W.W.W.W.W.W.W.                                                ",
"                                                            W.W.W.W.                                                            "
};
